{"title":"Arrow S02E13 - 720p HDTV x264 [MKV,AC3,5.1] Ehhhh","uid":9577511,"size":441217103,"categoryP":"video","categoryS":"hd___tv_shows","magnet":"?xt=urn:btih:0732cdb72264b8787461fec8830329e05b82723c&amp;dn=Arrow+S02E13+-+720p+HDTV+x264+%5BMKV%2CAC3%2C5.1%5D+Ehhhh&amp;tr=udp%3A%2F%2Ftracker.openbittorrent.com%3A80&amp;tr=udp%3A%2F%2Fopen.demonii.com%3A1337&amp;tr=udp%3A%2F%2Ftracker.coppersurfer.tk%3A6969&amp;tr=udp%3A%2F%2Fexodus.desync.com%3A6969","seeders":1,"leechers":0,"uploader":"mynameisurlz","files":-1,"time":1391723932,"description":" imageimage\n\nAs Laurel continues to unravel, Oliver and Lance try to convince Sara to stay in Starling City and finally reunite with Laurel and Dinah. However, Sara's fellow League of Assassins member, Nyssa, comes to bring Sara back to the fold, but when Sara refuses, Nyssa kidnaps Dinah. Realizing she's putting her family in danger by staying in town, Sara considers re-joining the league.\n\nGeneral\nFormat : Matroska\nFormat version : Version 4 / Version 2\nFile size : 420 MiB\nDuration : 42mn 4s\nOverall bit rate : 1 395 Kbps\nEncoded date : UTC 2014-02-06 12:03:22\nWriting application : mkvmerge v6.6.0 ('The Edge Of The In Between') built on Dec 1 2013 17:55:00\nWriting library : libebml v1.3.0 + libmatroska v1.4.1\n\nVideo\nID : 1\nFormat : AVC\nFormat/Info : Advanced Video Codec\nFormat profile : &lt;a class=&quot;__cf_email__&quot; href=&quot;/cdn-cgi/l/email-protection&quot; data-cfemail=&quot;bff7d6d8d7fff38b918e&quot;&gt;[email&amp;#160;protected]&lt;/a&gt;&lt;script cf-hash='f9e31' type=&quot;text/javascript&quot;&gt;\n/* &lt;![CDATA[ */!function(){try{var t=&quot;currentScript&quot;in document?document.currentScript:function(){for(var t=document.getElementsByTagName(&quot;script&quot;),e=t.length;e--;)if(t[e].getAttribute(&quot;cf-hash&quot;))return t[e]}();if(t&amp;&amp;t.previousSibling){var e,r,n,i,c=t.previousSibling,a=c.getAttribute(&quot;data-cfemail&quot;);if(a){for(e=&quot;&quot;,r=parseInt(a.substr(0,2),16),n=2;a.length-n;n+=2)i=parseInt(a.substr(n,2),16)^r,e+=String.fromCharCode(i);e=document.createTextNode(e),c.parentNode.replaceChild(e,c)}}}catch(u){}}();/* ]]&gt; */&lt;/script&gt;\nFormat settings, CABAC : Yes\nFormat settings, ReFrames : 14 frames\nCodec ID : V_MPEG4/ISO/AVC\nDuration : 42mn 4s\nBit rate : 1 010 Kbps\nWidth : 1 280 pixels\nHeight : 720 pixels\nDisplay aspect ratio : 16:9\nFrame rate mode : Constant\nFrame rate : 23.976 fps\nColor space : YUV\nChroma subsampling : 4:2:0\nBit depth : 8 bits\nScan type : Progressive\nBits/(Pixel*Frame) : 0.046\nStream size : 296 MiB (70%)\nWriting library : x264 core 140 r2377kMod 1ca7bb9\nDefault : Yes\nForced : No\n\nAudio\nID : 2\nFormat : AC-3\nFormat/Info : Audio Coding 3\nMode extension : CM (complete main)\nFormat settings, Endianness : Big\nCodec ID : A_AC3\nDuration : 42mn 4s\nBit rate mode : Constant\nBit rate : 384 Kbps\nChannel(s) : 2 channels\nChannel positions : Front: L R\nSampling rate : 48.0 KHz\nBit depth : 16 bits\nCompression mode : Lossy\nStream size : 116 MiB (28%)\nDefault : Yes\nForced : No\n\n\nimageimage ","torrent":{"xt":"urn:btih:0732cdb72264b8787461fec8830329e05b82723c","amp;dn":"Arrow+S02E13+-+720p+HDTV+x264+%5BMKV%2CAC3%2C5.1%5D+Ehhhh","amp;tr":["udp%3A%2F%2Ftracker.openbittorrent.com%3A80","udp%3A%2F%2Fopen.demonii.com%3A1337","udp%3A%2F%2Ftracker.coppersurfer.tk%3A6969","udp%3A%2F%2Fexodus.desync.com%3A6969"],"infoHash":"0732cdb72264b8787461fec8830329e05b82723c","infoHashBuffer":{"type":"Buffer","data":[7,50,205,183,34,100,184,120,116,97,254,200,131,3,41,224,91,130,114,60]},"announce":[],"urlList":[]}}